<?xml version="1.0" encoding="UTF-8"?>
<svg xmlns="http://www.w3.org/2000/svg" xmlns:xlink="http://www.w3.org/1999/xlink" width="202.76357pt" height="233.62131pt" viewBox="0 0 202.76357 233.62131" version="1.1">
<g id="surface1">
<path style="fill:none;stroke-width:1.5;stroke-linecap:butt;stroke-linejoin:miter;stroke:rgb(0%,0%,0%);stroke-opacity:1;stroke-miterlimit:4;" d="M 137.36505 211.567726 L 137.36505 224.911476 L 127.36505 224.911476 L 127.36505 211.329445 " transform="matrix(1,0,0,1,-15.849425,-13.731789)"/>
<path style="fill:none;stroke-width:1.5;stroke-linecap:butt;stroke-linejoin:miter;stroke:rgb(0%,0%,0%);stroke-opacity:1;stroke-miterlimit:4;" d="M 118.325987 201.450539 C 117.513487 207.462258 111.130675 212.145851 103.388487 212.145851 C 96.306456 212.145851 90.36505 208.231789 88.779112 202.962258 " transform="matrix(1,0,0,1,-15.849425,-13.731789)"/>
<path style="fill:none;stroke-width:1.5;stroke-linecap:butt;stroke-linejoin:miter;stroke:rgb(0%,0%,0%);stroke-opacity:1;stroke-miterlimit:4;" d="M 146.572081 195.47007 C 147.329894 196.90757 147.747862 198.485695 147.747862 200.141945 C 147.747862 206.766945 141.040831 212.141945 132.7713 212.141945 C 125.0838 212.141945 118.747862 207.497414 117.8963 201.516945 " transform="matrix(1,0,0,1,-15.849425,-13.731789)"/>
<path style="fill:none;stroke-width:1.5;stroke-linecap:butt;stroke-linejoin:miter;stroke:rgb(0%,0%,0%);stroke-opacity:1;stroke-miterlimit:4;" d="M 151.314269 138.516945 C 149.079894 140.493508 134.310362 153.067726 103.55255 168.50132 C 41.6463 199.567726 22.435363 224.911476 22.435363 224.911476 L 19.86505 224.911476 C 19.86505 224.911476 -7.63495 132.520851 96.947081 85.169289 " transform="matrix(1,0,0,1,-15.849425,-13.731789)"/>
<path style="fill:none;stroke-width:1.5;stroke-linecap:butt;stroke-linejoin:miter;stroke:rgb(0%,0%,0%);stroke-opacity:1;stroke-miterlimit:4;" d="M 112.982237 182.239601 C 112.982237 182.239601 113.232237 189.138039 112.783019 191.380226 C 112.1463 194.524758 108.634581 201.223976 105.017394 201.591164 C 101.318175 201.97007 97.950987 194.286476 97.255675 191.380226 C 96.634581 188.774758 97.017394 184.239601 97.017394 184.239601 " transform="matrix(1,0,0,1,-15.849425,-13.731789)"/>
<path style="fill:none;stroke-width:1.5;stroke-linecap:butt;stroke-linejoin:miter;stroke:rgb(0%,0%,0%);stroke-opacity:1;stroke-miterlimit:4;" d="M 105.017394 174.364601 L 105.017394 201.591164 " transform="matrix(1,0,0,1,-15.849425,-13.731789)"/>
<path style="fill:none;stroke-width:1.5;stroke-linecap:butt;stroke-linejoin:miter;stroke:rgb(0%,0%,0%);stroke-opacity:1;stroke-miterlimit:4;" d="M 97.0213 184.239601 C 97.0213 184.239601 97.232237 189.138039 96.783019 191.380226 C 96.1463 194.524758 92.634581 201.223976 89.017394 201.591164 C 85.318175 201.97007 81.950987 194.286476 81.255675 191.380226 C 80.634581 188.774758 81.017394 180.239601 81.017394 180.239601 " transform="matrix(1,0,0,1,-15.849425,-13.731789)"/>
<path style="fill:none;stroke-width:1.5;stroke-linecap:butt;stroke-linejoin:miter;stroke:rgb(0%,0%,0%);stroke-opacity:1;stroke-miterlimit:4;" d="M 89.017394 176.102883 L 89.017394 201.591164 " transform="matrix(1,0,0,1,-15.849425,-13.731789)"/>
<path style="fill:none;stroke-width:1.5;stroke-linecap:butt;stroke-linejoin:miter;stroke:rgb(0%,0%,0%);stroke-opacity:1;stroke-miterlimit:4;" d="M 81.025206 180.614601 C 81.060362 182.325539 81.17755 189.415383 80.783019 191.380226 C 80.1463 194.524758 76.634581 201.223976 73.017394 201.591164 C 69.318175 201.97007 65.747862 193.145851 65.048644 190.239601 " transform="matrix(1,0,0,1,-15.849425,-13.731789)"/>
<path style="fill:none;stroke-width:1.5;stroke-linecap:butt;stroke-linejoin:miter;stroke:rgb(0%,0%,0%);stroke-opacity:1;stroke-miterlimit:4;" d="M 73.017394 185.278664 L 73.017394 201.591164 " transform="matrix(1,0,0,1,-15.849425,-13.731789)"/>
<path style="fill:none;stroke-width:1.5;stroke-linecap:butt;stroke-linejoin:miter;stroke:rgb(0%,0%,0%);stroke-opacity:1;stroke-miterlimit:4;" d="M 64.661925 190.485695 C 63.786925 193.794289 60.447081 199.841164 57.017394 200.192726 C 55.704894 200.325539 54.42755 199.442726 53.30255 198.114601 " transform="matrix(1,0,0,1,-15.849425,-13.731789)"/>
<path style="fill:none;stroke-width:1.5;stroke-linecap:butt;stroke-linejoin:miter;stroke:rgb(0%,0%,0%);stroke-opacity:1;stroke-miterlimit:4;" d="M 57.017394 195.548195 L 57.017394 200.192726 " transform="matrix(1,0,0,1,-15.849425,-13.731789)"/>
<path style="fill:none;stroke-width:1.5;stroke-linecap:butt;stroke-linejoin:miter;stroke:rgb(0%,0%,0%);stroke-opacity:1;stroke-miterlimit:4;" d="M 128.982237 181.43882 C 128.982237 181.43882 129.232237 188.337258 128.783019 190.579445 C 128.1463 193.723976 124.634581 200.423195 121.017394 200.794289 C 117.318175 201.169289 113.950987 193.485695 113.255675 190.579445 C 112.634581 187.973976 112.982237 181.43882 112.982237 181.43882 " transform="matrix(1,0,0,1,-15.849425,-13.731789)"/>
<path style="fill:none;stroke-width:1.5;stroke-linecap:butt;stroke-linejoin:miter;stroke:rgb(0%,0%,0%);stroke-opacity:1;stroke-miterlimit:4;" d="M 121.017394 173.56382 L 121.017394 200.794289 " transform="matrix(1,0,0,1,-15.849425,-13.731789)"/>
<path style="fill:none;stroke-width:1.5;stroke-linecap:butt;stroke-linejoin:miter;stroke:rgb(0%,0%,0%);stroke-opacity:1;stroke-miterlimit:4;" d="M 144.982237 178.239601 C 144.982237 178.239601 145.232237 185.138039 144.783019 187.380226 C 144.1463 190.524758 140.634581 197.223976 137.017394 197.591164 C 133.318175 197.97007 129.950987 190.286476 129.255675 187.380226 C 128.634581 184.774758 128.982237 178.239601 128.982237 178.239601 " transform="matrix(1,0,0,1,-15.849425,-13.731789)"/>
<path style="fill:none;stroke-width:1.5;stroke-linecap:butt;stroke-linejoin:miter;stroke:rgb(0%,0%,0%);stroke-opacity:1;stroke-miterlimit:4;" d="M 137.017394 170.364601 L 137.017394 197.591164 " transform="matrix(1,0,0,1,-15.849425,-13.731789)"/>
<path style="fill:none;stroke-width:1.5;stroke-linecap:butt;stroke-linejoin:miter;stroke:rgb(0%,0%,0%);stroke-opacity:1;stroke-miterlimit:4;" d="M 160.779112 173.641945 C 160.779112 173.641945 161.232237 180.536476 160.779112 182.778664 C 160.142394 185.923195 156.634581 192.622414 153.013487 192.993508 C 149.314269 193.372414 145.947081 185.684914 145.251769 182.778664 C 144.634581 180.173195 144.978331 173.641945 144.978331 173.641945 " transform="matrix(1,0,0,1,-15.849425,-13.731789)"/>
<path style="fill:none;stroke-width:1.5;stroke-linecap:butt;stroke-linejoin:miter;stroke:rgb(0%,0%,0%);stroke-opacity:1;stroke-miterlimit:4;" d="M 153.017394 165.763039 L 153.017394 192.993508 " transform="matrix(1,0,0,1,-15.849425,-13.731789)"/>
<path style="fill:none;stroke-width:1.5;stroke-linecap:butt;stroke-linejoin:miter;stroke:rgb(0%,0%,0%);stroke-opacity:1;stroke-miterlimit:4;" d="M 176.982237 164.239601 C 176.982237 164.239601 177.232237 173.138039 176.783019 175.380226 C 176.1463 178.524758 172.634581 185.223976 169.017394 185.591164 C 165.318175 185.97007 161.950987 178.286476 161.255675 175.380226 C 160.634581 172.774758 160.982237 166.34507 160.982237 166.34507 " transform="matrix(1,0,0,1,-15.849425,-13.731789)"/>
<path style="fill:none;stroke-width:1.5;stroke-linecap:butt;stroke-linejoin:miter;stroke:rgb(0%,0%,0%);stroke-opacity:1;stroke-miterlimit:4;" d="M 169.017394 158.364601 L 169.017394 185.591164 " transform="matrix(1,0,0,1,-15.849425,-13.731789)"/>
<path style="fill:none;stroke-width:1.5;stroke-linecap:butt;stroke-linejoin:miter;stroke:rgb(0%,0%,0%);stroke-opacity:1;stroke-miterlimit:4;" d="M 192.779112 142.239601 C 192.779112 142.239601 193.232237 161.138039 192.779112 163.380226 C 192.142394 166.524758 188.634581 173.223976 185.013487 173.591164 C 181.314269 173.97007 177.947081 166.286476 177.251769 163.380226 C 176.943175 161.294289 176.904112 156.755226 176.904112 156.755226 " transform="matrix(1,0,0,1,-15.849425,-13.731789)"/>
<path style="fill:none;stroke-width:1.5;stroke-linecap:butt;stroke-linejoin:miter;stroke:rgb(0%,0%,0%);stroke-opacity:1;stroke-miterlimit:4;" d="M 185.017394 146.364601 L 185.017394 173.591164 " transform="matrix(1,0,0,1,-15.849425,-13.731789)"/>
<path style="fill:none;stroke-width:1.5;stroke-linecap:butt;stroke-linejoin:miter;stroke:rgb(0%,0%,0%);stroke-opacity:1;stroke-miterlimit:4;" d="M 120.993956 159.169289 C 121.025206 161.634133 121.138487 171.806008 120.747862 173.770851 C 120.107237 176.915383 116.599425 183.614601 112.982237 183.985695 C 109.283019 184.364601 105.915831 176.677101 105.220519 173.770851 C 105.107237 173.294289 104.982237 168.68882 104.939269 168.013039 " transform="matrix(1,0,0,1,-15.849425,-13.731789)"/>
<path style="fill:none;stroke-width:1.5;stroke-linecap:butt;stroke-linejoin:miter;stroke:rgb(0%,0%,0%);stroke-opacity:1;stroke-miterlimit:4;" d="M 112.982237 163.606789 L 112.982237 183.985695 " transform="matrix(1,0,0,1,-15.849425,-13.731789)"/>
<path style="fill:none;stroke-width:1.5;stroke-linecap:butt;stroke-linejoin:miter;stroke:rgb(0%,0%,0%);stroke-opacity:1;stroke-miterlimit:4;" d="M 104.943175 168.016945 C 104.911925 168.72007 104.8338 173.333351 104.747862 173.766945 C 104.111144 176.911476 100.599425 183.614601 96.982237 183.981789 C 94.5838 184.227883 91.048644 178.837258 89.568175 175.802101 " transform="matrix(1,0,0,1,-15.849425,-13.731789)"/>
<path style="fill:none;stroke-width:1.5;stroke-linecap:butt;stroke-linejoin:miter;stroke:rgb(0%,0%,0%);stroke-opacity:1;stroke-miterlimit:4;" d="M 96.982237 171.860695 L 96.982237 183.985695 " transform="matrix(1,0,0,1,-15.849425,-13.731789)"/>
<path style="fill:none;stroke-width:1.5;stroke-linecap:butt;stroke-linejoin:miter;stroke:rgb(0%,0%,0%);stroke-opacity:1;stroke-miterlimit:4;" d="M 137.017394 149.009133 C 137.017394 149.009133 137.197081 171.528664 136.743956 173.770851 C 136.107237 176.915383 132.595519 183.614601 128.982237 183.985695 C 125.283019 184.364601 121.911925 176.677101 121.220519 173.770851 C 120.673644 171.489601 120.900206 161.591164 120.966612 159.169289 " transform="matrix(1,0,0,1,-15.849425,-13.731789)"/>
<path style="fill:none;stroke-width:1.5;stroke-linecap:butt;stroke-linejoin:miter;stroke:rgb(0%,0%,0%);stroke-opacity:1;stroke-miterlimit:4;" d="M 128.982237 154.40757 L 128.982237 183.985695 " transform="matrix(1,0,0,1,-15.849425,-13.731789)"/>
<path style="fill:none;stroke-width:1.5;stroke-linecap:butt;stroke-linejoin:miter;stroke:rgb(0%,0%,0%);stroke-opacity:1;stroke-miterlimit:4;" d="M 152.743956 154.630226 C 152.743956 154.630226 153.197081 171.528664 152.743956 173.770851 C 152.107237 176.915383 148.595519 183.614601 144.978331 183.985695 C 141.279112 184.364601 137.911925 176.677101 137.216612 173.770851 C 136.595519 171.165383 137.013487 149.009133 137.013487 149.009133 " transform="matrix(1,0,0,1,-15.849425,-13.731789)"/>
<path style="fill:none;stroke-width:1.5;stroke-linecap:butt;stroke-linejoin:miter;stroke:rgb(0%,0%,0%);stroke-opacity:1;stroke-miterlimit:4;" d="M 144.982237 156.755226 L 144.982237 183.985695 " transform="matrix(1,0,0,1,-15.849425,-13.731789)"/>
<path style="fill:none;stroke-width:1.5;stroke-linecap:butt;stroke-linejoin:miter;stroke:rgb(0%,0%,0%);stroke-opacity:1;stroke-miterlimit:4;" d="M 152.943175 146.364601 C 152.943175 146.364601 153.197081 152.78257 152.743956 155.020851 C 152.107237 158.165383 148.595519 164.864601 144.982237 165.235695 C 141.283019 165.614601 137.911925 157.927101 137.220519 155.020851 C 137.095519 154.505226 137.056456 149.747414 137.013487 149.005226 " transform="matrix(1,0,0,1,-15.849425,-13.731789)"/>
<path style="fill:none;stroke-width:1.5;stroke-linecap:butt;stroke-linejoin:miter;stroke:rgb(0%,0%,0%);stroke-opacity:1;stroke-miterlimit:4;" d="M 144.982237 144.005226 L 144.982237 165.235695 " transform="matrix(1,0,0,1,-15.849425,-13.731789)"/>
<path style="fill:none;stroke-width:1.5;stroke-linecap:butt;stroke-linejoin:miter;stroke:rgb(0%,0%,0%);stroke-opacity:1;stroke-miterlimit:4;" d="M 128.982237 154.40757 L 128.982237 165.235695 " transform="matrix(1,0,0,1,-15.849425,-13.731789)"/>
<path style="fill:none;stroke-width:1.5;stroke-linecap:butt;stroke-linejoin:miter;stroke:rgb(0%,0%,0%);stroke-opacity:1;stroke-miterlimit:4;" d="M 168.743956 153.880226 C 168.743956 153.880226 169.197081 160.778664 168.743956 163.020851 C 168.107237 166.165383 164.595519 172.864601 160.978331 173.235695 C 157.279112 173.614601 153.911925 165.927101 153.216612 163.020851 C 152.595519 160.415383 152.978331 153.989601 152.978331 153.989601 " transform="matrix(1,0,0,1,-15.849425,-13.731789)"/>
<path style="fill:none;stroke-width:1.5;stroke-linecap:butt;stroke-linejoin:miter;stroke:rgb(0%,0%,0%);stroke-opacity:1;stroke-miterlimit:4;" d="M 160.982237 142.005226 L 160.982237 173.235695 " transform="matrix(1,0,0,1,-15.849425,-13.731789)"/>
<path style="fill:none;stroke-width:1.5;stroke-linecap:butt;stroke-linejoin:miter;stroke:rgb(0%,0%,0%);stroke-opacity:1;stroke-miterlimit:4;" d="M 184.743956 145.880226 C 184.743956 145.880226 185.197081 152.778664 184.743956 155.020851 C 184.107237 158.165383 180.595519 164.864601 176.978331 165.235695 C 173.279112 165.614601 169.911925 157.927101 169.216612 155.020851 C 168.595519 152.415383 168.982237 145.880226 168.982237 145.880226 " transform="matrix(1,0,0,1,-15.849425,-13.731789)"/>
<path style="fill:none;stroke-width:1.5;stroke-linecap:butt;stroke-linejoin:miter;stroke:rgb(0%,0%,0%);stroke-opacity:1;stroke-miterlimit:4;" d="M 176.982237 138.005226 L 176.982237 165.235695 " transform="matrix(1,0,0,1,-15.849425,-13.731789)"/>
<path style="fill:none;stroke-width:1.5;stroke-linecap:butt;stroke-linejoin:miter;stroke:rgb(0%,0%,0%);stroke-opacity:1;stroke-miterlimit:4;" d="M 176.759581 127.204445 C 176.837706 129.942726 177.1463 141.798195 176.743956 143.774758 C 176.107237 146.919289 172.595519 153.622414 168.978331 153.989601 C 165.279112 154.368508 161.911925 146.681008 161.216612 143.774758 C 160.845519 142.212258 160.8338 139.227883 160.884581 137.098976 " transform="matrix(1,0,0,1,-15.849425,-13.731789)"/>
<path style="fill:none;stroke-width:1.5;stroke-linecap:butt;stroke-linejoin:miter;stroke:rgb(0%,0%,0%);stroke-opacity:1;stroke-miterlimit:4;" d="M 168.982237 133.614601 L 168.982237 153.993508 " transform="matrix(1,0,0,1,-15.849425,-13.731789)"/>
<path style="fill:none;stroke-width:1.5;stroke-linecap:butt;stroke-linejoin:miter;stroke:rgb(0%,0%,0%);stroke-opacity:1;stroke-miterlimit:4;" d="M 160.888487 137.098976 C 160.888487 137.098976 161.197081 141.536476 160.743956 143.774758 C 160.107237 146.919289 156.595519 153.622414 152.978331 153.989601 C 149.783019 154.317726 146.169737 147.43882 144.982237 144.005226 " transform="matrix(1,0,0,1,-15.849425,-13.731789)"/>
<path style="fill:none;stroke-width:1.5;stroke-linecap:butt;stroke-linejoin:miter;stroke:rgb(0%,0%,0%);stroke-opacity:1;stroke-miterlimit:4;" d="M 152.982237 138.473976 L 152.982237 153.993508 " transform="matrix(1,0,0,1,-15.849425,-13.731789)"/>
<path style="fill:none;stroke-width:1.5;stroke-linecap:butt;stroke-linejoin:miter;stroke:rgb(0%,0%,0%);stroke-opacity:1;stroke-miterlimit:4;" d="M 192.743956 130.638039 C 192.743956 130.638039 193.197081 141.536476 192.743956 143.774758 C 192.107237 146.919289 188.595519 153.622414 184.978331 153.989601 C 181.279112 154.368508 177.911925 146.681008 177.216612 143.774758 C 176.595519 141.169289 176.759581 127.204445 176.759581 127.204445 " transform="matrix(1,0,0,1,-15.849425,-13.731789)"/>
<path style="fill:none;stroke-width:1.5;stroke-linecap:butt;stroke-linejoin:miter;stroke:rgb(0%,0%,0%);stroke-opacity:1;stroke-miterlimit:4;" d="M 184.982237 119.216164 L 184.982237 153.993508 " transform="matrix(1,0,0,1,-15.849425,-13.731789)"/>
<path style="fill:none;stroke-width:1.5;stroke-linecap:butt;stroke-linejoin:miter;stroke:rgb(0%,0%,0%);stroke-opacity:1;stroke-miterlimit:4;" d="M 204.478331 150.895851 C 203.595519 152.559914 202.095519 153.950539 200.982237 153.989601 C 197.267394 154.130226 193.915831 146.681008 193.220519 143.774758 C 192.599425 141.169289 193.134581 133.923195 193.220519 130.638039 " transform="matrix(1,0,0,1,-15.849425,-13.731789)"/>
<path style="fill:none;stroke-width:1.5;stroke-linecap:butt;stroke-linejoin:miter;stroke:rgb(0%,0%,0%);stroke-opacity:1;stroke-miterlimit:4;" d="M 200.982237 114.759133 L 200.982237 153.993508 " transform="matrix(1,0,0,1,-15.849425,-13.731789)"/>
<path style="fill:none;stroke-width:1.5;stroke-linecap:butt;stroke-linejoin:miter;stroke:rgb(0%,0%,0%);stroke-opacity:1;stroke-miterlimit:4;" d="M 183.92755 92.673195 C 183.92755 92.673195 215.341612 104.477883 192.947081 132.208351 C 192.947081 132.208351 185.954894 124.321633 183.92755 115.868508 " transform="matrix(1,0,0,1,-15.849425,-13.731789)"/>
<path style="fill:none;stroke-width:1.5;stroke-linecap:butt;stroke-linejoin:miter;stroke:rgb(0%,0%,0%);stroke-opacity:1;stroke-miterlimit:4;" d="M 192.947081 132.638039 C 193.173644 124.048195 194.493956 105.954445 185.591612 100.579445 " transform="matrix(1,0,0,1,-15.849425,-13.731789)"/>
<path style="fill:none;stroke-width:1.5;stroke-linecap:butt;stroke-linejoin:miter;stroke:rgb(0%,0%,0%);stroke-opacity:1;stroke-miterlimit:10;" d="M 185.591612 52.329445 C 191.220519 35.56382 187.923644 26.540383 187.923644 26.540383 " transform="matrix(1,0,0,1,-15.849425,-13.731789)"/>
<path style="fill:none;stroke-width:1.5;stroke-linecap:butt;stroke-linejoin:miter;stroke:rgb(0%,0%,0%);stroke-opacity:1;stroke-miterlimit:4;" d="M 55.040831 200.145851 C 47.384581 207.891945 37.661925 234.62632 37.661925 234.62632 C 37.661925 228.145851 62.435362 201.181008 62.435362 201.181008 " transform="matrix(1,0,0,1,-15.849425,-13.731789)"/>
<path style="fill:none;stroke-width:1.5;stroke-linecap:butt;stroke-linejoin:miter;stroke:rgb(0%,0%,0%);stroke-opacity:1;stroke-miterlimit:4;" d="M 45.5213 203.681008 C 45.5213 203.681008 36.689269 225.204445 36.689269 234.62632 " transform="matrix(1,0,0,1,-15.849425,-13.731789)"/>
<path style="fill:none;stroke-width:1.5;stroke-linecap:butt;stroke-linejoin:miter;stroke:rgb(0%,0%,0%);stroke-opacity:1;stroke-miterlimit:4;" d="M 31.783019 214.809914 C 31.783019 223.446633 35.716612 234.62632 35.716612 234.62632 L 38.634581 234.62632 C 54.837706 215.833351 72.982237 202.235695 72.982237 202.235695 " transform="matrix(1,0,0,1,-15.849425,-13.731789)"/>
<path style="fill:none;stroke-width:1.5;stroke-linecap:butt;stroke-linejoin:miter;stroke:rgb(0%,0%,0%);stroke-opacity:1;stroke-miterlimit:4;" d="M 37.486144 210.25132 C 35.564269 216.731789 35.716612 234.62632 35.716612 234.62632 " transform="matrix(1,0,0,1,-15.849425,-13.731789)"/>
<path style="fill:none;stroke-width:1.5;stroke-linecap:butt;stroke-linejoin:miter;stroke:rgb(0%,0%,0%);stroke-opacity:1;stroke-miterlimit:4;" d="M 131.587706 23.368508 C 139.24005 20.208351 148.040831 18.411476 157.861144 18.411476 C 207.861144 18.411476 217.861144 69.911476 217.861144 91.911476 C 217.861144 228.888039 61.376769 201.40757 51.36505 199.509133 " transform="matrix(1,0,0,1,-15.849425,-13.731789)"/>
<path style="fill:none;stroke-width:1.5;stroke-linecap:butt;stroke-linejoin:miter;stroke:rgb(0%,0%,0%);stroke-opacity:1;stroke-miterlimit:4;" d="M 120.060362 124.06382 L 119.36505 123.411476 C 87.236144 96.083351 90.564269 51.848976 118.876769 30.587258 " transform="matrix(1,0,0,1,-15.849425,-13.731789)"/>
<path style="fill:none;stroke-width:1.5;stroke-linecap:butt;stroke-linejoin:miter;stroke:rgb(0%,0%,0%);stroke-opacity:1;stroke-miterlimit:4;" d="M 192.982237 58.114601 C 192.982237 58.114601 200.982237 63.091164 200.982237 78.68882 C 200.982237 91.423195 195.650206 97.079445 193.689269 98.727883 " transform="matrix(1,0,0,1,-15.849425,-13.731789)"/>
<path style="fill:none;stroke-width:1.5;stroke-linecap:butt;stroke-linejoin:miter;stroke:rgb(0%,0%,0%);stroke-opacity:1;stroke-miterlimit:4;" d="M 132.216612 132.708351 C 137.673644 136.37632 144.243956 138.516945 151.314269 138.516945 C 170.243956 138.516945 185.591612 123.173195 185.591612 104.243508 C 185.591612 98.481789 184.161925 93.06382 181.642394 88.306008 " transform="matrix(1,0,0,1,-15.849425,-13.731789)"/>
<path style="fill:none;stroke-width:1.5;stroke-linecap:butt;stroke-linejoin:miter;stroke:rgb(0%,0%,0%);stroke-opacity:1;stroke-miterlimit:4;" d="M 118.697081 42.583351 C 118.173644 46.102883 118.482237 49.497414 119.044737 53.134133 C 120.435362 62.208351 128.747862 72.411476 135.783019 78.68882 C 128.747862 84.966164 120.876769 91.802101 119.044737 104.243508 C 118.486144 108.009133 118.158019 111.704445 118.868956 115.309914 " transform="matrix(1,0,0,1,-15.849425,-13.731789)"/>
<path style="fill:none;stroke-width:1.5;stroke-linecap:butt;stroke-linejoin:miter;stroke:rgb(0%,0%,0%);stroke-opacity:1;stroke-miterlimit:4;" d="M 181.634581 69.083351 C 184.158019 64.321633 185.591612 58.899758 185.591612 53.134133 C 185.591612 34.204445 170.24005 18.860695 151.314269 18.860695 C 148.908019 18.860695 146.556456 19.110695 144.286925 19.583351 " transform="matrix(1,0,0,1,-15.849425,-13.731789)"/>
<path style="fill:none;stroke-width:1.5;stroke-linecap:butt;stroke-linejoin:miter;stroke:rgb(0%,0%,0%);stroke-opacity:1;stroke-miterlimit:4;" d="M 133.310362 31.348976 C 133.380675 19.708351 122.962706 11.255226 114.306456 15.661476 C 102.790831 21.516945 109.509581 33.270851 109.509581 33.270851 C 109.509581 33.270851 124.728331 19.645851 118.513487 43.177101 " transform="matrix(1,0,0,1,-15.849425,-13.731789)"/>
<path style="fill:none;stroke-width:1.5;stroke-linecap:butt;stroke-linejoin:miter;stroke:rgb(0%,0%,0%);stroke-opacity:1;stroke-miterlimit:4;" d="M 129.185362 35.56382 C 129.236144 30.044289 125.005675 16.997414 117.130675 18.65757 C 109.419737 20.286476 109.505675 33.270851 109.505675 33.270851 " transform="matrix(1,0,0,1,-15.849425,-13.731789)"/>
<path style="fill:none;stroke-width:1.5;stroke-linecap:butt;stroke-linejoin:miter;stroke:rgb(0%,0%,0%);stroke-opacity:1;stroke-miterlimit:4;" d="M 123.7713 46.509133 C 128.408019 22.114601 114.931456 20.411476 109.509581 33.270851 " transform="matrix(1,0,0,1,-15.849425,-13.731789)"/>
<path style="fill:none;stroke-width:1.5;stroke-linecap:butt;stroke-linejoin:miter;stroke:rgb(0%,0%,0%);stroke-opacity:1;stroke-miterlimit:4;" d="M 133.310362 126.259133 C 133.380675 137.899758 122.962706 146.352883 114.306456 141.946633 C 102.790831 136.091164 109.509581 124.337258 109.509581 124.337258 C 109.509581 124.337258 123.7713 137.65757 118.513487 114.431008 " transform="matrix(1,0,0,1,-15.849425,-13.731789)"/>
<path style="fill:none;stroke-width:1.5;stroke-linecap:butt;stroke-linejoin:miter;stroke:rgb(0%,0%,0%);stroke-opacity:1;stroke-miterlimit:4;" d="M 129.185362 122.048195 C 129.236144 127.567726 125.005675 140.610695 117.130675 138.950539 C 109.419737 137.325539 109.505675 124.341164 109.505675 124.341164 " transform="matrix(1,0,0,1,-15.849425,-13.731789)"/>
<path style="fill:none;stroke-width:1.5;stroke-linecap:butt;stroke-linejoin:miter;stroke:rgb(0%,0%,0%);stroke-opacity:1;stroke-miterlimit:4;" d="M 123.7713 111.098976 C 128.408019 135.493508 114.931456 137.196633 109.509581 124.337258 " transform="matrix(1,0,0,1,-15.849425,-13.731789)"/>
<path style="fill:none;stroke-width:1.5;stroke-linecap:butt;stroke-linejoin:miter;stroke:rgb(0%,0%,0%);stroke-opacity:1;stroke-miterlimit:4;" d="M 166.900206 53.130226 C 166.900206 61.739601 159.923644 68.716164 151.318175 68.716164 C 142.7088 68.716164 135.732237 61.739601 135.732237 53.130226 C 135.732237 44.524758 142.7088 37.548195 151.318175 37.548195 C 159.923644 37.548195 166.900206 44.524758 166.900206 53.130226 Z M 166.900206 53.130226 " transform="matrix(1,0,0,1,-15.849425,-13.731789)"/>
<path style="fill:none;stroke-width:1.5;stroke-linecap:butt;stroke-linejoin:miter;stroke:rgb(0%,0%,0%);stroke-opacity:1;stroke-miterlimit:4;" d="M 173.443175 53.134133 C 173.443175 65.356789 163.536925 75.263039 151.318175 75.263039 C 139.095519 75.263039 129.189269 65.356789 129.189269 53.134133 C 129.189269 40.911476 139.095519 31.005226 151.318175 31.005226 C 163.536925 31.005226 173.443175 40.911476 173.443175 53.134133 Z M 173.443175 53.134133 " transform="matrix(1,0,0,1,-15.849425,-13.731789)"/>
<path style="fill:none;stroke-width:1.5;stroke-linecap:butt;stroke-linejoin:miter;stroke:rgb(0%,0%,0%);stroke-opacity:1;stroke-miterlimit:4;" d="M 166.900206 104.243508 C 166.900206 112.848976 159.923644 119.825539 151.318175 119.825539 C 142.7088 119.825539 135.732237 112.848976 135.732237 104.243508 C 135.732237 95.638039 142.7088 88.65757 151.318175 88.65757 C 159.923644 88.65757 166.900206 95.638039 166.900206 104.243508 Z M 166.900206 104.243508 " transform="matrix(1,0,0,1,-15.849425,-13.731789)"/>
<path style="fill:none;stroke-width:1.5;stroke-linecap:butt;stroke-linejoin:miter;stroke:rgb(0%,0%,0%);stroke-opacity:1;stroke-miterlimit:4;" d="M 173.443175 104.243508 C 173.443175 116.462258 163.536925 126.372414 151.318175 126.372414 C 139.095519 126.372414 129.189269 116.462258 129.189269 104.243508 C 129.189269 92.020851 139.095519 82.114601 151.318175 82.114601 C 163.536925 82.114601 173.443175 92.020851 173.443175 104.243508 Z M 173.443175 104.243508 " transform="matrix(1,0,0,1,-15.849425,-13.731789)"/>
<path style="fill-rule:nonzero;fill:rgb(0%,0%,0%);fill-opacity:1;stroke-width:0.75;stroke-linecap:butt;stroke-linejoin:miter;stroke:rgb(0%,0%,0%);stroke-opacity:1;stroke-miterlimit:4;" d="M 161.275206 104.243508 C 161.275206 109.743508 156.818175 114.200539 151.318175 114.200539 C 145.818175 114.200539 141.357237 109.743508 141.357237 104.243508 C 141.357237 98.743508 145.818175 94.286476 151.318175 94.286476 C 156.818175 94.286476 161.275206 98.743508 161.275206 104.243508 Z M 161.275206 104.243508 " transform="matrix(1,0,0,1,-15.849425,-13.731789)"/>
<path style="fill-rule:nonzero;fill:rgb(0%,0%,0%);fill-opacity:1;stroke-width:0.75;stroke-linecap:butt;stroke-linejoin:miter;stroke:rgb(0%,0%,0%);stroke-opacity:1;stroke-miterlimit:4;" d="M 161.275206 53.130226 C 161.275206 58.630226 156.818175 63.091164 151.318175 63.091164 C 145.818175 63.091164 141.357237 58.630226 141.357237 53.130226 C 141.357237 47.634133 145.818175 43.173195 151.318175 43.173195 C 156.818175 43.173195 161.275206 47.634133 161.275206 53.130226 Z M 161.275206 53.130226 " transform="matrix(1,0,0,1,-15.849425,-13.731789)"/>
<path style="fill:none;stroke-width:1.5;stroke-linecap:butt;stroke-linejoin:miter;stroke:rgb(0%,0%,0%);stroke-opacity:1;stroke-miterlimit:4;" d="M 123.822081 111.087258 C 126.884581 123.423195 138.033019 132.56382 151.314269 132.567726 C 166.9588 132.567726 179.642394 119.884133 179.642394 104.243508 C 179.642394 98.630226 178.001769 93.411476 175.181456 89.016945 C 174.908019 89.024758 174.626769 89.036476 174.357237 89.036476 C 171.087706 89.036476 162.329894 87.153664 162.329894 83.880226 L 162.329894 73.489601 C 162.329894 70.22007 171.087706 68.337258 174.357237 68.337258 C 174.626769 68.337258 174.911925 68.352883 175.185362 68.360695 C 178.001769 63.966164 179.642394 58.747414 179.642394 53.134133 C 179.642394 37.493508 166.9588 24.809914 151.314269 24.809914 C 137.954894 24.809914 126.755675 34.06382 123.7713 46.509133 " transform="matrix(1,0,0,1,-15.849425,-13.731789)"/>
<path style="fill:none;stroke-width:1.5;stroke-linecap:butt;stroke-linejoin:miter;stroke:rgb(0%,0%,0%);stroke-opacity:1;stroke-miterlimit:4;" d="M 196.697081 78.68882 C 196.697081 72.72007 184.294737 68.59507 175.185362 68.360695 C 174.911925 68.352883 174.626769 68.337258 174.357237 68.337258 C 171.087706 68.337258 162.329894 70.22007 162.329894 73.489601 L 162.329894 83.884133 C 162.329894 87.153664 171.087706 89.040383 174.357237 89.040383 C 174.626769 89.040383 174.908019 89.024758 175.185362 89.016945 C 184.290831 88.778664 196.697081 84.65757 196.697081 78.68882 Z M 196.697081 78.68882 " transform="matrix(1,0,0,1,-15.849425,-13.731789)"/>
<path style="fill:none;stroke-width:1.5;stroke-linecap:butt;stroke-linejoin:miter;stroke:rgb(0%,0%,0%);stroke-opacity:1;stroke-miterlimit:4;" d="M 168.751769 75.434914 C 168.751769 73.384133 174.236144 72.204445 176.286925 72.204445 C 182.0213 72.204445 190.2713 74.837258 190.2713 78.68882 C 190.2713 82.540383 182.0213 85.169289 176.286925 85.169289 C 174.236144 85.169289 168.751769 83.989601 168.751769 81.942726 Z M 168.751769 75.434914 " transform="matrix(1,0,0,1,-15.849425,-13.731789)"/>
<path style="fill:none;stroke-width:1.5;stroke-linecap:butt;stroke-linejoin:miter;stroke:rgb(0%,0%,0%);stroke-opacity:1;stroke-miterlimit:4;" d="M 109.36505 211.149758 L 109.36505 224.911476 L 99.36505 224.911476 L 99.36505 211.708351 " transform="matrix(1,0,0,1,-15.849425,-13.731789)"/>
<path style="fill:none;stroke-width:1.5;stroke-linecap:butt;stroke-linejoin:miter;stroke:rgb(0%,0%,0%);stroke-opacity:1;stroke-miterlimit:4;" d="M 100.482237 97.25132 C 11.86505 134.638039 19.86505 224.911476 19.86505 224.911476 " transform="matrix(1,0,0,1,-15.849425,-13.731789)"/>
<path style="fill:none;stroke-width:1.5;stroke-linecap:butt;stroke-linejoin:miter;stroke:rgb(0%,0%,0%);stroke-opacity:1;stroke-miterlimit:4;" d="M 105.017394 106.622414 C 16.825988 152.634133 19.86505 224.911476 19.86505 224.911476 " transform="matrix(1,0,0,1,-15.849425,-13.731789)"/>
<path style="fill:none;stroke-width:1.5;stroke-linecap:butt;stroke-linejoin:miter;stroke:rgb(0%,0%,0%);stroke-opacity:1;stroke-miterlimit:4;" d="M 137.462706 135.591164 C 17.661925 197.606789 22.361144 224.911476 22.361144 224.911476 " transform="matrix(1,0,0,1,-15.849425,-13.731789)"/>
<path style="fill:none;stroke-width:1.5;stroke-linecap:butt;stroke-linejoin:miter;stroke:rgb(0%,0%,0%);stroke-opacity:1;stroke-miterlimit:4;" d="M 201.911925 40.102883 C 201.911925 40.102883 205.130675 53.130226 183.564269 64.708351 " transform="matrix(1,0,0,1,-15.849425,-13.731789)"/>
<path style="fill:none;stroke-width:1.5;stroke-linecap:butt;stroke-linejoin:miter;stroke:rgb(0%,0%,0%);stroke-opacity:1;stroke-miterlimit:4;" d="M 199.564269 68.337258 C 199.564269 68.337258 211.501769 60.333351 209.384581 52.329445 " transform="matrix(1,0,0,1,-15.849425,-13.731789)"/>
<path style="fill:none;stroke-width:1.5;stroke-linecap:butt;stroke-linejoin:miter;stroke:rgb(0%,0%,0%);stroke-opacity:1;stroke-miterlimit:4;" d="M 200.982237 75.259133 C 200.982237 75.259133 211.908019 74.028664 214.556456 66.727883 " transform="matrix(1,0,0,1,-15.849425,-13.731789)"/>
<path style="fill:none;stroke-width:1.5;stroke-linecap:butt;stroke-linejoin:miter;stroke:rgb(0%,0%,0%);stroke-opacity:1;stroke-miterlimit:4;" d="M 200.982237 85.173195 C 200.982237 85.173195 214.556456 85.173195 217.853331 93.497414 " transform="matrix(1,0,0,1,-15.849425,-13.731789)"/>
<path style="fill:none;stroke-width:1.5;stroke-linecap:butt;stroke-linejoin:miter;stroke:rgb(0%,0%,0%);stroke-opacity:1;stroke-miterlimit:4;" d="M 198.556456 91.798195 C 198.556456 91.798195 213.325987 95.114601 211.564269 134.638039 " transform="matrix(1,0,0,1,-15.849425,-13.731789)"/>
<path style="fill:none;stroke-width:1.5;stroke-linecap:butt;stroke-linejoin:miter;stroke:rgb(0%,0%,0%);stroke-opacity:1;stroke-miterlimit:4;" d="M 109.36505 224.911476 C 109.36505 224.911476 108.447081 233.309914 116.447081 232.630226 C 125.283019 231.87632 125.982237 230.419289 130.36505 230.411476 C 138.935362 230.399758 133.986144 244.411476 133.986144 244.411476 C 133.986144 244.411476 134.962706 235.145851 129.5838 235.145851 C 124.1463 235.145851 118.36505 240.364601 108.486144 238.786476 C 103.450987 237.981789 97.486144 230.571633 97.486144 230.571633 " transform="matrix(1,0,0,1,-15.849425,-13.731789)"/>
<path style="fill:none;stroke-width:1.5;stroke-linecap:butt;stroke-linejoin:miter;stroke:rgb(0%,0%,0%);stroke-opacity:1;stroke-miterlimit:4;" d="M 137.36505 224.911476 C 137.36505 224.911476 137.626769 234.536476 146.181456 233.790383 C 155.013487 233.016945 157.986144 230.622414 162.36505 230.411476 C 171.658019 229.966164 164.017394 245.384133 164.017394 245.384133 C 164.017394 245.384133 164.61505 235.87632 159.232237 235.87632 C 153.794737 235.87632 145.904112 243.325539 135.408019 236.247414 " transform="matrix(1,0,0,1,-15.849425,-13.731789)"/>
<path style="fill:none;stroke-width:1.5;stroke-linecap:butt;stroke-linejoin:miter;stroke:rgb(0%,0%,0%);stroke-opacity:1;stroke-miterlimit:4;" d="M 99.36505 224.911476 C 99.36505 224.911476 99.408019 233.40757 91.86505 233.661476 C 84.486144 233.911476 73.431456 225.102883 69.61505 233.411476 C 67.49005 238.036476 73.017394 245.161476 73.017394 245.161476 C 73.017394 245.161476 73.017394 235.786476 78.36505 235.911476 C 82.822081 236.016945 87.361144 240.048195 91.86505 240.161476 C 96.74005 240.286476 102.361144 235.481789 102.361144 235.481789 " transform="matrix(1,0,0,1,-15.849425,-13.731789)"/>
<path style="fill:none;stroke-width:1.5;stroke-linecap:butt;stroke-linejoin:miter;stroke:rgb(0%,0%,0%);stroke-opacity:1;stroke-miterlimit:4;" d="M 106.661925 238.243508 C 106.661925 238.243508 99.361144 245.384133 89.837706 244.489601 C 85.693175 244.098976 80.982237 238.243508 76.806456 240.391945 C 75.435362 241.098976 73.017394 245.165383 73.017394 245.165383 " transform="matrix(1,0,0,1,-15.849425,-13.731789)"/>
<path style="fill:none;stroke-width:1.5;stroke-linecap:butt;stroke-linejoin:miter;stroke:rgb(0%,0%,0%);stroke-opacity:1;stroke-miterlimit:4;" d="M 133.986144 244.411476 C 133.986144 244.411476 131.622862 239.37632 127.36505 240.204445 C 124.454894 240.766945 120.169737 243.618508 112.982237 243.825539 C 109.36505 243.927101 102.361144 241.145851 102.361144 241.145851 " transform="matrix(1,0,0,1,-15.849425,-13.731789)"/>
<path style="fill:none;stroke-width:1.5;stroke-linecap:butt;stroke-linejoin:miter;stroke:rgb(0%,0%,0%);stroke-opacity:1;stroke-miterlimit:4;" d="M 164.036925 244.411476 C 164.036925 244.411476 162.029112 238.911476 156.486144 240.352883 C 153.318175 241.173195 151.314269 243.079445 144.947081 243.579445 C 142.560362 243.770851 134.806456 241.477883 134.806456 241.477883 " transform="matrix(1,0,0,1,-15.849425,-13.731789)"/>
<path style="fill:none;stroke-width:1.5;stroke-linecap:butt;stroke-linejoin:miter;stroke:rgb(0%,0%,0%);stroke-opacity:1;stroke-miterlimit:4;" d="M 127.36505 230.770851 L 127.36505 224.911476 " transform="matrix(1,0,0,1,-15.849425,-13.731789)"/>
<path style="fill:none;stroke-width:1.5;stroke-linecap:butt;stroke-linejoin:miter;stroke:rgb(0%,0%,0%);stroke-opacity:1;stroke-miterlimit:4;" d="M 78.509581 117.337258 C 66.650206 122.071633 61.079894 122.048195 61.079894 122.048195 C 61.079894 122.048195 62.431456 108.173195 98.700987 91.798195 " transform="matrix(1,0,0,1,-15.849425,-13.731789)"/>
<path style="fill:none;stroke-width:1.5;stroke-linecap:butt;stroke-linejoin:miter;stroke:rgb(0%,0%,0%);stroke-opacity:1;stroke-miterlimit:4;" d="M 80.591612 130.09507 C 67.947081 136.59507 64.978331 134.208351 64.978331 134.208351 C 64.978331 121.848976 102.564269 102.083351 102.564269 102.083351 " transform="matrix(1,0,0,1,-15.849425,-13.731789)"/>
<path style="fill:none;stroke-width:1.5;stroke-linecap:butt;stroke-linejoin:miter;stroke:rgb(0%,0%,0%);stroke-opacity:1;stroke-miterlimit:4;" d="M 117.044737 121.348976 C 80.982237 148.770851 69.462706 147.079445 69.462706 147.079445 C 69.462706 147.079445 64.978331 135.591164 108.392394 111.700539 " transform="matrix(1,0,0,1,-15.849425,-13.731789)"/>
<path style="fill:none;stroke-width:1.5;stroke-linecap:butt;stroke-linejoin:miter;stroke:rgb(0%,0%,0%);stroke-opacity:1;stroke-miterlimit:4;" d="M 115.103331 142.317726 C 94.5213 155.567726 80.982237 152.630226 80.982237 152.630226 C 80.982237 152.630226 81.267394 148.540383 88.400206 140.356789 " transform="matrix(1,0,0,1,-15.849425,-13.731789)"/>
<path style="fill:none;stroke-width:1.5;stroke-linecap:butt;stroke-linejoin:miter;stroke:rgb(0%,0%,0%);stroke-opacity:1;stroke-miterlimit:4;" d="M 144.982237 137.65757 C 124.42755 157.536476 103.876769 153.884133 103.876769 153.884133 C 103.876769 153.884133 103.392394 150.03257 114.306456 141.950539 " transform="matrix(1,0,0,1,-15.849425,-13.731789)"/>
<path style="fill:none;stroke-width:1.5;stroke-linecap:butt;stroke-linejoin:miter;stroke:rgb(0%,0%,0%);stroke-opacity:1;stroke-miterlimit:4;" d="M 66.786925 102.411476 C 68.892394 103.122414 74.794737 104.485695 81.911925 100.579445 " transform="matrix(1,0,0,1,-15.849425,-13.731789)"/>
<path style="fill:none;stroke-width:1.5;stroke-linecap:butt;stroke-linejoin:miter;stroke:rgb(0%,0%,0%);stroke-opacity:1;stroke-miterlimit:4;" d="M 122.560362 93.497414 C 110.618956 98.360695 97.947081 88.65757 97.947081 88.65757 C 97.947081 84.192726 106.841612 78.669289 111.310362 78.669289 C 116.337706 78.665383 125.17755 88.65757 125.17755 88.65757 " transform="matrix(1,0,0,1,-15.849425,-13.731789)"/>
<path style="fill:none;stroke-width:1.5;stroke-linecap:butt;stroke-linejoin:miter;stroke:rgb(0%,0%,0%);stroke-opacity:1;stroke-miterlimit:4;" d="M 97.392394 69.130226 L 125.650206 69.130226 " transform="matrix(1,0,0,1,-15.849425,-13.731789)"/>
<path style="fill:none;stroke-width:1.5;stroke-linecap:butt;stroke-linejoin:miter;stroke:rgb(0%,0%,0%);stroke-opacity:1;stroke-miterlimit:4;" d="M 97.947081 88.65757 L 125.181456 88.65757 " transform="matrix(1,0,0,1,-15.849425,-13.731789)"/>
<path style="fill:none;stroke-width:1.5;stroke-linecap:butt;stroke-linejoin:miter;stroke:rgb(0%,0%,0%);stroke-opacity:1;stroke-miterlimit:4;" d="M 111.310362 78.665383 L 135.783019 78.68882 " transform="matrix(1,0,0,1,-15.849425,-13.731789)"/>
<path style="fill:none;stroke-width:1.5;stroke-linecap:butt;stroke-linejoin:miter;stroke:rgb(0%,0%,0%);stroke-opacity:1;stroke-miterlimit:4;" d="M 122.044737 62.25132 C 109.829894 58.716164 97.392394 68.579445 97.392394 68.579445 C 97.392394 73.048195 106.845519 78.669289 111.310362 78.669289 C 116.228331 78.665383 126.126769 68.716164 126.126769 68.716164 " transform="matrix(1,0,0,1,-15.849425,-13.731789)"/>
<path style="fill:none;stroke-width:1.5;stroke-linecap:butt;stroke-linejoin:miter;stroke:rgb(0%,0%,0%);stroke-opacity:1;stroke-miterlimit:4;" d="M 106.255675 108.614601 C 106.255675 108.614601 110.450987 98.509133 122.560362 93.497414 " transform="matrix(1,0,0,1,-15.849425,-13.731789)"/>
<path style="fill:none;stroke-width:1.5;stroke-linecap:butt;stroke-linejoin:miter;stroke:rgb(0%,0%,0%);stroke-opacity:1;stroke-miterlimit:4;" d="M 112.982237 117.263039 L 117.642394 110.411476 " transform="matrix(1,0,0,1,-15.849425,-13.731789)"/>
<path style="fill:none;stroke-width:1.5;stroke-linecap:butt;stroke-linejoin:miter;stroke:rgb(0%,0%,0%);stroke-opacity:1;stroke-miterlimit:4;" d="M 107.560362 135.614601 C 30.033019 179.380226 20.86505 224.911476 20.86505 224.911476 C 20.86505 224.911476 20.634581 169.149758 112.982237 117.266945 " transform="matrix(1,0,0,1,-15.849425,-13.731789)"/>
<path style="fill:none;stroke-width:1.5;stroke-linecap:butt;stroke-linejoin:miter;stroke:rgb(0%,0%,0%);stroke-opacity:1;stroke-miterlimit:4;" d="M 118.431456 46.509133 L 112.228331 36.458351 " transform="matrix(1,0,0,1,-15.849425,-13.731789)"/>
<path style="fill:none;stroke-width:1.5;stroke-linecap:butt;stroke-linejoin:miter;stroke:rgb(0%,0%,0%);stroke-opacity:1;stroke-miterlimit:4;" d="M 105.025206 45.700539 L 117.689269 46.509133 " transform="matrix(1,0,0,1,-15.849425,-13.731789)"/>
<path style="fill:none;stroke-width:1.5;stroke-linecap:butt;stroke-linejoin:miter;stroke:rgb(0%,0%,0%);stroke-opacity:1;stroke-miterlimit:4;" d="M 105.025206 45.700539 C 105.025206 45.700539 107.415831 53.75132 121.193175 61.770851 " transform="matrix(1,0,0,1,-15.849425,-13.731789)"/>
<path style="fill:none;stroke-width:1.5;stroke-linecap:butt;stroke-linejoin:miter;stroke:rgb(0%,0%,0%);stroke-opacity:1;stroke-miterlimit:4;" d="M 119.044737 53.134133 C 113.505675 53.231789 105.966612 46.509133 105.966612 46.509133 " transform="matrix(1,0,0,1,-15.849425,-13.731789)"/>
<path style="fill:none;stroke-width:1.5;stroke-linecap:butt;stroke-linejoin:miter;stroke:rgb(0%,0%,0%);stroke-opacity:1;stroke-miterlimit:4;" d="M 106.255675 108.614601 L 117.642394 110.411476 " transform="matrix(1,0,0,1,-15.849425,-13.731789)"/>
<path style="fill:none;stroke-width:1.5;stroke-linecap:butt;stroke-linejoin:miter;stroke:rgb(0%,0%,0%);stroke-opacity:1;stroke-miterlimit:4;" d="M 119.517394 101.634133 C 116.267394 102.110695 106.255675 108.610695 106.255675 108.610695 " transform="matrix(1,0,0,1,-15.849425,-13.731789)"/>
<path style="fill:none;stroke-width:1.5;stroke-linecap:butt;stroke-linejoin:miter;stroke:rgb(0%,0%,0%);stroke-opacity:1;stroke-miterlimit:4;" d="M 137.005675 149.255226 C 136.962706 150.509133 136.822081 154.622414 136.743956 155.020851 C 136.107237 158.165383 132.595519 164.868508 128.978331 165.235695 C 127.3338 165.403664 125.751769 163.973976 124.439269 162.079445 L 122.408019 158.341164 " transform="matrix(1,0,0,1,-15.849425,-13.731789)"/>
</g>
</svg>
